<?xml version="1.0" standalone="no"?>
<!DOCTYPE svg PUBLIC "-//W3C//DTD SVG 20010904//EN"
 "http://www.w3.org/TR/2001/REC-SVG-20010904/DTD/svg10.dtd">
<svg version="1.0" xmlns="http://www.w3.org/2000/svg"
 width="511.369704pt" height="451.874188pt" viewBox="0 0 511.369704 451.874188"
 preserveAspectRatio="xMidYMid meet">
<g transform="translate(-0.085919,453.014645) rotate(-360.00) scale(0.095238,-0.095238)"
fill="#000000" stroke="none">
<path d="M4373 4743 c-18 -7 -155 -74 -305 -150 -663 -333 -1268 -515 -2062
-620 -100 -13 -261 -19 -657 -25 -580 -7 -565 -5 -672 -79 -80 -55 -135 -135
-161 -232 l-12 -43 -118 -6 c-154 -7 -205 -26 -282 -101 -43 -43 -66 -75 -82
-121 -22 -60 -23 -72 -20 -504 l3 -442 26 -52 c36 -74 114 -146 185 -173 45
-17 82 -22 172 -22 l114 0 12 -48 c25 -102 98 -201 185 -252 25 -14 48 -34 52
-44 4 -10 141 -389 305 -842 180 -495 311 -841 328 -866 16 -23 52 -56 80 -74
l52 -31 360 -3 c234 -2 374 0 402 8 60 16 127 71 157 131 22 41 27 67 27 121
-1 62 -25 133 -265 793 -145 398 -262 725 -261 726 1 1 67 -7 148 -18 510 -65
1019 -197 1506 -390 102 -40 324 -142 495 -227 298 -148 312 -154 372 -153 46
0 78 8 116 27 61 32 88 59 122 124 l25 47 3 464 3 464 73 17 c254 63 453 248
542 504 25 75 29 100 29 221 1 114 -3 149 -24 215 -42 136 -91 216 -196 322
-81 81 -109 102 -194 143 -55 27 -129 54 -165 61 l-65 13 -3 463 c-3 419 -5
467 -22 505 -56 124 -212 194 -328 149z m90 -1861 c0 -1092 -4 -1611 -11
-1611 -6 0 -88 39 -181 88 -543 282 -1113 483 -1714 603 -160 32 -463 78 -601
91 l-76 7 0 818 0 817 34 5 c18 3 62 8 97 12 747 75 1596 335 2289 703 81 43
150 78 155 78 4 1 8 -724 8 -1611z m-2846 0 l0 -803 -375 0 c-354 0 -378 1
-409 21 -70 42 -67 9 -64 792 l3 708 26 28 c51 55 61 57 454 57 l365 1 0 -804z
m3224 437 c75 -35 186 -146 222 -223 129 -268 -2 -585 -281 -681 l-57 -20 0
483 0 482 29 -6 c16 -4 55 -20 87 -35z m-4337 -437 l0 -446 -100 0 c-154 0
-142 -37 -141 436 0 259 3 402 11 416 16 31 47 39 143 40 l87 1 0 -447z m1381
-1724 c131 -363 257 -710 279 -772 l41 -113 -307 2 -306 3 -276 762 c-152 418
-276 764 -276 769 0 4 136 8 303 8 l303 0 239 -659z"/>
</g>
</svg>
