<?xml version="1.0" standalone="no"?>
<!DOCTYPE svg PUBLIC "-//W3C//DTD SVG 20010904//EN"
 "http://www.w3.org/TR/2001/REC-SVG-20010904/DTD/svg10.dtd">
<svg version="1.0" xmlns="http://www.w3.org/2000/svg"
 width="430.189998pt" height="544.468695pt" viewBox="0 0 430.189998 544.468695"
 preserveAspectRatio="xMidYMid meet">
<g transform="translate(-780.310002,1349.968695) rotate(-360.00) scale(0.095238,-0.095238)"
fill="#000000" stroke="none">
<path d="M9422 14160 c-52 -23 -130 -101 -152 -151 -10 -24 -32 -56 -47 -71
l-28 -25 -342 -1 c-189 0 -362 -5 -386 -10 -57 -13 -112 -47 -166 -101 -74
-75 -92 -106 -101 -175 -5 -36 -8 -824 -7 -1752 2 -1643 3 -1687 22 -1709 21
-22 92 -31 118 -14 35 24 36 36 36 1751 0 1899 -8 1728 80 1795 47 36 51 37
141 37 87 0 93 -2 114 -28 l22 -27 0 -2339 c0 -2214 0 -2339 18 -2355 10 -9
37 -21 60 -27 60 -17 3243 -17 3308 0 25 6 54 21 65 32 18 20 19 119 21 2364
3 2215 4 2344 21 2361 21 20 34 22 130 20 62 -1 74 -5 114 -36 24 -19 53 -49
64 -66 20 -30 20 -80 20 -2456 l1 -2426 -26 -35 c-15 -20 -44 -48 -65 -63
l-38 -27 -1953 -3 -1954 -3 -43 26 c-25 14 -57 44 -72 66 l-29 41 0 535 c0
575 0 574 -54 601 -40 19 -99 -6 -111 -47 -4 -16 -8 -280 -8 -587 l0 -557 46
-70 c32 -49 67 -85 116 -120 l69 -50 2032 0 2032 0 65 46 c39 28 84 73 110
111 l45 63 0 2499 0 2500 -39 59 c-55 82 -142 147 -221 166 -59 13 -443 13
-492 0 -93 -26 -98 -140 -7 -163 15 -4 37 -16 47 -28 18 -20 19 -111 22 -2281
l3 -2260 -25 -23 -24 -23 -1475 0 c-811 0 -1494 0 -1519 0 -30 0 -51 7 -65 22
-21 20 -21 35 -21 2278 l0 2258 25 26 c25 25 33 26 146 26 160 0 162 -2 171
-142 6 -92 11 -112 41 -168 43 -77 58 -91 131 -122 53 -22 74 -24 254 -25 135
-1 201 -5 211 -14 8 -7 33 -42 55 -78 81 -133 115 -170 212 -229 l92 -57 226
0 226 0 76 47 c95 57 162 128 228 239 28 48 56 87 62 88 7 1 97 2 201 3 171 1
195 4 254 26 74 29 93 47 138 132 l33 61 0 228 c0 209 -2 231 -22 273 -29 61
-97 132 -150 157 -44 22 -58 22 -1047 22 -831 -1 -1007 -3 -1035 -15z m2001
-171 c73 -37 79 -57 83 -255 4 -207 -2 -226 -76 -262 -45 -22 -60 -23 -261
-21 -176 3 -219 0 -251 -13 -46 -21 -71 -55 -78 -110 -11 -79 -16 -91 -75
-153 -97 -101 -115 -108 -307 -108 -147 0 -167 2 -206 23 -99 53 -182 165
-182 246 0 22 -9 50 -22 65 -37 47 -80 54 -312 51 l-212 -3 -48 27 c-25 15
-51 37 -57 48 -6 11 -11 94 -11 188 0 205 11 245 78 275 41 19 89 20 972 20
864 0 932 -1 965 -18z"/>
<path d="M10691 12704 c-39 -15 -90 -144 -112 -288 -4 -23 -21 -85 -38 -139
-16 -53 -35 -130 -42 -171 -6 -42 -25 -115 -42 -164 -17 -48 -36 -125 -43
-169 -6 -45 -20 -106 -32 -136 -19 -52 -22 -55 -55 -55 -30 0 -37 5 -53 38
-10 21 -24 68 -32 105 -8 36 -28 97 -46 134 -18 37 -32 76 -32 86 0 30 -27
111 -51 156 -12 22 -27 65 -33 94 -21 103 -83 174 -138 160 -29 -7 -97 -96
-127 -164 -11 -26 -32 -63 -46 -82 -14 -19 -31 -49 -38 -68 -15 -43 -86 -140
-112 -155 -12 -6 -74 -10 -140 -10 -142 0 -165 -11 -165 -73 0 -28 7 -48 25
-68 28 -30 23 -29 230 -30 120 0 125 0 168 30 29 21 56 54 80 100 21 38 46 82
56 97 10 15 25 39 34 54 19 30 52 34 66 8 6 -10 16 -47 23 -82 7 -34 18 -72
25 -84 17 -28 42 -102 59 -172 7 -32 22 -72 32 -90 11 -17 31 -76 46 -130 14
-54 34 -110 43 -124 9 -14 25 -59 36 -100 24 -95 50 -124 112 -124 36 0 49 5
61 24 24 36 76 208 89 290 6 41 26 118 43 171 18 54 37 130 43 169 6 39 25
114 42 166 17 53 38 141 46 198 9 57 19 110 22 120 10 25 44 21 58 -7 7 -13
23 -36 36 -51 13 -16 34 -68 47 -116 12 -48 32 -104 44 -124 12 -20 30 -65 41
-100 11 -36 32 -75 47 -90 l27 -25 273 -3 272 -3 31 31 c23 22 32 41 32 68 0
65 -18 69 -252 70 -185 0 -209 2 -239 20 -38 23 -80 97 -99 175 -6 28 -25 80
-41 115 -16 34 -37 93 -47 131 -9 37 -26 84 -38 103 -11 19 -29 68 -40 108
-37 132 -95 198 -156 176z"/>
<path d="M9335 10479 c-14 -14 -21 -35 -21 -63 0 -28 7 -49 21 -63 20 -21 35
-21 1123 -21 1089 0 1103 0 1124 21 29 30 28 97 -2 126 -23 21 -31 21 -1124
21 -1086 0 -1101 0 -1121 -21z"/>
<path d="M9384 9755 c-52 -10 -74 -33 -73 -74 1 -40 18 -62 63 -81 52 -21
2118 -21 2170 1 64 27 82 106 30 140 -27 18 -93 19 -1089 20 -584 1 -1079 -2
-1101 -6z"/>
</g>
</svg>
