<svg class="icon" style="width: 1em; height: 1em;vertical-align: middle;fill: currentColor;overflow: hidden;" viewBox="0 0 1024 1024" version="1.1" xmlns="http://www.w3.org/2000/svg"><path d="M512 0C233.248 0 6.528 222.752 0.16 499.968 6.08 258.112 189.984 64 416 64 645.76 64 832 264.576 832 512 832 565.024 874.976 608 928 608 981.024 608 1024 565.024 1024 512 1024 229.216 794.784 0 512 0ZM512 1024C790.752 1024 1017.472 801.248 1023.84 524.032 1017.92 765.888 834.016 960 608 960 378.24 960 192 759.424 192 512 192 458.976 149.024 416 96 416 42.976 416 0 458.976 0 512 0 794.784 229.216 1024 512 1024Z" /></svg>