<svg version="1.0" xmlns="http://www.w3.org/2000/svg"
 viewBox="0 0 784.196573 108.762903"
 preserveAspectRatio="xMidYMid meet">
<g transform="translate(-0.000000,108.861828) rotate(-360.00) scale(0.095238,-0.095238)"
fill="#000000" stroke="none">
<path d="M1968 1131 c-3 -8 -4 -47 -2 -87 l3 -73 105 0 105 0 0 84 0 84 -103
3 c-80 3 -104 0 -108 -11z"/>
<path d="M4652 1128 c-156 -43 -260 -155 -284 -305 -14 -84 -13 -437 1 -514
15 -80 42 -132 100 -190 68 -68 162 -109 265 -116 220 -15 374 90 436 299 l16
55 -112 0 -113 0 -26 -55 c-37 -76 -87 -105 -176 -100 -77 4 -111 25 -149 93
-26 45 -27 51 -27 272 0 220 1 227 27 278 45 91 152 125 247 79 34 -17 51 -35
74 -79 l30 -57 113 0 112 0 -16 55 c-39 131 -123 229 -233 271 -79 29 -208 36
-285 14z"/>
<path d="M5864 1131 c-4 -8 -5 -47 -3 -87 l3 -73 105 0 105 0 0 84 0 84 -102
3 c-80 3 -104 0 -108 -11z"/>
<path d="M7197 1131 c-3 -8 -4 -47 -2 -87 l3 -73 105 0 105 0 0 84 0 84 -103
3 c-80 3 -104 0 -108 -11z"/>
<path d="M0 573 l0 -562 115 0 116 0 2 332 3 333 215 -333 214 -333 98 0 98 1
0 561 0 562 -110 0 -110 0 -3 -336 -3 -335 -215 333 -216 333 -102 3 -102 3 0
-562z"/>
<path d="M5345 671 c0 -317 3 -476 11 -504 17 -55 68 -113 119 -137 31 -14 68
-19 135 -19 l92 0 0 89 0 89 -57 0 c-96 0 -90 -32 -90 489 l0 456 -105 0 -105
0 0 -463z"/>
<path d="M1285 818 c-155 -59 -234 -214 -222 -436 7 -140 35 -212 108 -284 76
-74 164 -103 298 -96 77 4 104 10 160 37 37 18 80 47 96 63 l28 30 -62 62 -63
62 -24 -22 c-37 -35 -96 -56 -157 -55 -97 0 -161 49 -176 135 l-8 43 256 0
256 0 0 88 c0 196 -87 335 -237 380 -72 21 -188 18 -253 -7z m217 -173 c28
-14 54 -58 67 -112 l6 -29 -152 0 -152 0 0 27 c0 32 21 76 50 102 43 40 119
45 181 12z"/>
<path d="M2699 819 c-26 -12 -58 -32 -71 -44 l-24 -23 0 39 0 39 -100 0 -99 0
0 -410 0 -409 105 0 105 0 0 273 c0 301 3 320 62 351 45 23 108 20 142 -7 l28
-22 81 80 c77 77 79 81 59 96 -49 38 -87 51 -162 55 -64 3 -88 0 -126 -18z"/>
<path d="M3260 821 c-105 -36 -182 -123 -206 -231 -19 -90 -16 -278 6 -354 47
-158 180 -245 359 -234 138 9 253 91 295 211 27 80 27 336 -1 416 -27 79 -107
159 -188 189 -76 28 -190 29 -265 3z m203 -186 c49 -35 60 -74 60 -215 0 -106
-4 -138 -19 -165 -37 -68 -137 -88 -195 -39 -43 36 -58 86 -58 204 -1 118 21
191 65 215 38 20 118 20 147 0z"/>
<path d="M6603 826 c-21 -8 -52 -25 -71 -37 l-32 -24 0 32 0 33 -100 0 -100 0
0 -410 0 -409 105 0 105 0 0 272 c0 151 5 284 10 299 23 59 123 87 190 53 59
-31 63 -50 63 -351 l0 -273 105 0 105 0 0 292 c0 322 -6 362 -64 442 -60 83
-205 120 -316 81z"/>
<path d="M7826 821 c-146 -52 -222 -168 -232 -356 -9 -164 32 -303 110 -371
21 -19 65 -46 97 -61 50 -24 72 -28 158 -28 108 0 164 18 239 75 l36 28 -71
71 -71 72 -35 -28 c-79 -60 -189 -37 -231 48 -27 55 -28 254 0 304 47 87 167
103 244 33 21 -19 22 -19 92 52 l72 72 -35 29 c-62 52 -121 72 -224 76 -72 3
-108 -1 -149 -16z"/>
<path d="M1974 410 l0 -399 105 0 105 0 0 399 0 399 -105 0 -105 0 0 -399z"/>
<path d="M5870 410 l0 -399 105 0 105 0 0 399 0 399 -105 0 -105 0 0 -399z"/>
<path d="M7203 410 l0 -399 105 0 105 0 0 399 0 399 -105 0 -105 0 0 -399z"/>
<path d="M3917 126 l0 -115 120 0 121 0 0 115 0 116 -121 0 -120 0 0 -116z"/>
</g>
</svg>
