<?xml version="1.0" standalone="no"?>
<!DOCTYPE svg PUBLIC "-//W3C//DTD SVG 20010904//EN"
 "http://www.w3.org/TR/2001/REC-SVG-20010904/DTD/svg10.dtd">
<svg version="1.0" xmlns="http://www.w3.org/2000/svg"
 width="598.950408pt" height="597.757373pt" viewBox="0 0 598.950408 597.757373"
 preserveAspectRatio="xMidYMid meet">
<metadata>
Created by Potrace Professional 1.1m
</metadata>
<g transform="translate(-0.528003,597.875726) rotate(-360.00) scale(0.095238,-0.095238)"
fill="#000000" stroke="none">
<path d="M2168 6267 c-482 -49 -957 -255 -1334 -579 -385 -331 -664 -799 -775
-1299 -44 -201 -54 -296 -53 -541 0 -247 12 -358 64 -571 79 -328 241 -660
451 -928 80 -102 293 -312 403 -397 277 -216 611 -376 935 -449 225 -51 300
-59 567 -58 262 0 381 13 582 63 144 35 363 117 508 190 l153 77 69 -67 c37
-37 423 -412 857 -833 858 -833 845 -822 1003 -859 284 -67 575 98 672 381 19
55 24 93 25 181 0 132 -25 224 -89 320 -29 44 -295 309 -880 876 l-839 813 42
74 c139 245 233 515 287 825 27 154 27 575 1 739 -75 462 -263 869 -563 1218
-458 533 -1139 841 -1844 835 -81 -1 -190 -6 -242 -11z m541 -991 c483 -108
869 -428 1051 -872 226 -553 89 -1182 -348 -1593 -203 -192 -432 -311 -715
-372 -124 -27 -430 -27 -555 0 -703 151 -1192 772 -1162 1476 16 376 164 710
432 973 219 214 474 344 783 399 106 20 407 13 514 -11z"/>
</g>
</svg>
