<?xml version="1.0" standalone="no"?>
<!DOCTYPE svg PUBLIC "-//W3C//DTD SVG 20010904//EN"
 "http://www.w3.org/TR/2001/REC-SVG-20010904/DTD/svg10.dtd">
<svg version="1.0" xmlns="http://www.w3.org/2000/svg"
 width="286.577955pt" height="286.644547pt" viewBox="0 0 286.577955 286.644547"
 preserveAspectRatio="xMidYMid meet">
<metadata>
Created by Potrace Professional 1.1m
</metadata>
<g transform="translate(-229.412822,511.815820) rotate(-360.00) scale(0.095238,-0.095238)"
fill="#000000" stroke="none">
<path d="M3392 5360 c-373 -59 -693 -295 -861 -638 -127 -258 -155 -537 -83
-813 108 -412 433 -730 860 -839 110 -28 434 -29 535 -1 117 32 254 89 333
138 l76 48 15 -29 c9 -16 201 -214 428 -440 361 -359 418 -412 453 -419 131
-23 270 97 270 234 0 52 -4 59 -54 116 -67 75 -726 731 -786 782 l-43 37 52
92 c264 459 188 1030 -186 1402 -139 138 -276 224 -451 283 -179 60 -372 76
-558 47z m362 -431 c34 -8 108 -37 163 -64 82 -40 114 -64 183 -134 146 -147
216 -317 216 -524 0 -130 -20 -215 -77 -332 -35 -73 -61 -108 -138 -185 -81
-82 -110 -104 -195 -145 -219 -108 -440 -107 -661 1 -84 40 -115 64 -190 139
-75 74 -99 107 -140 190 -81 165 -102 341 -59 510 101 401 495 640 898 544z"/>
</g>
</svg>
