<?xml version="1.0" standalone="no"?>
<!DOCTYPE svg PUBLIC "-//W3C//DTD SVG 20010904//EN"
 "http://www.w3.org/TR/2001/REC-SVG-20010904/DTD/svg10.dtd">
<svg version="1.0" xmlns="http://www.w3.org/2000/svg"
 width="597.716497pt" height="597.889924pt" viewBox="0 0 597.716497 597.889924"
 preserveAspectRatio="xMidYMid meet">
<metadata>
Created by Potrace Professional 1.1m
</metadata>
<g transform="translate(-2.304662,600.797917) rotate(-360.00) scale(0.095238,-0.095238)"
fill="#000000" stroke="none">
<path d="M1990 6299 c-843 -79 -1585 -669 -1852 -1473 -263 -789 -63 -1636
523 -2222 418 -418 954 -640 1543 -640 415 -1 838 128 1185 360 l116 77 1159
-1159 c934 -935 1168 -1165 1211 -1185 74 -36 170 -35 244 1 62 32 132 103
161 166 29 64 27 166 -5 233 -21 42 -250 277 -1185 1211 l-1160 1159 77 115
c365 546 459 1235 255 1862 -109 335 -283 616 -539 871 -460 458 -1089 684
-1733 624z m415 -550 c695 -92 1239 -597 1386 -1286 28 -129 39 -399 21 -531
-97 -742 -669 -1313 -1414 -1413 -58 -8 -157 -10 -261 -6 -263 9 -433 52 -672
170 -872 429 -1166 1545 -622 2360 342 512 952 788 1562 706z"/>
</g>
</svg>
