<?xml version="1.0" standalone="no"?>
<!DOCTYPE svg PUBLIC "-//W3C//DTD SVG 20010904//EN"
 "http://www.w3.org/TR/2001/REC-SVG-20010904/DTD/svg10.dtd">
<svg version="1.0" xmlns="http://www.w3.org/2000/svg"
 width="511.000000pt" height="495.240121pt" viewBox="0 0 511.000000 495.240121"
 preserveAspectRatio="xMidYMid meet">
<metadata>
Created by Potrace Professional 1.1m
</metadata>
<g transform="translate(-0.500000,495.740121) rotate(-360.00) scale(0.095238,-0.095238)"
fill="#000000" stroke="none">
<path d="M275 5192 c-30 -8 -68 -22 -84 -30 -57 -30 -127 -102 -156 -162 l-30
-60 0 -1795 0 -1796 28 -59 c35 -76 100 -140 175 -175 l60 -28 937 -3 937 -3
0 -42 c0 -24 -8 -77 -17 -118 -38 -171 -119 -285 -238 -339 -61 -27 -77 -30
-249 -35 -164 -6 -189 -9 -233 -31 -93 -45 -150 -138 -149 -243 1 -108 59
-197 162 -245 l47 -23 1223 0 1223 0 48 23 c146 69 205 235 131 369 -65 118
-135 149 -332 149 -211 0 -301 28 -386 121 -74 79 -138 253 -138 372 l0 42
937 3 937 3 60 28 c75 35 140 99 175 175 l28 59 0 1796 0 1795 -30 60 c-36 75
-114 146 -194 179 l-60 24 -2378 2 c-2029 1 -2386 0 -2434 -13z m4828 -197
c32 -17 54 -39 70 -70 l24 -46 0 -1452 1 -1453 -90 0 -89 0 0 1407 0 1408 -26
26 -26 26 -2279 0 -2279 0 -26 -26 -26 -26 0 -1408 0 -1407 -89 0 -89 0 0
1453 0 1452 24 46 c16 31 38 53 70 70 l45 24 2370 0 2370 0 45 -24z m-265
-1674 l-3 -1342 -2147 0 -2147 0 -3 1342 -3 1341 2153 0 2153 0 -3 -1341z
m358 -1735 l-4 -209 -32 -40 c-18 -22 -48 -49 -68 -59 -34 -17 -171 -18 -2404
-18 -2233 0 -2370 1 -2404 18 -20 10 -50 37 -68 59 l-32 40 -4 209 -3 210
2511 0 2511 0 -3 -210z m-2146 -554 c25 -199 72 -339 148 -441 14 -18 26 -36
26 -39 0 -3 -241 -6 -536 -6 -295 0 -535 3 -535 6 0 3 11 21 25 39 76 102 123
242 148 441 l6 50 356 0 356 0 6 -50z m862 -699 c33 -39 33 -85 0 -118 l-26
-26 -1198 0 -1198 0 -26 26 c-43 43 -26 119 31 142 12 5 552 8 1207 7 l1185
-2 25 -29z"/>
<path d="M1191 4458 l-25 -26 0 -887 c0 -857 0 -887 20 -911 l20 -25 1058 -5
1058 -5 44 -147 c54 -182 53 -179 84 -193 54 -25 77 -15 158 63 l78 76 124
-123 c126 -124 146 -136 192 -111 11 6 84 75 162 153 186 188 185 176 22 342
l-119 121 72 74 c57 58 72 80 72 105 -1 62 -34 84 -200 132 l-152 45 -5 653
-6 654 -25 20 c-24 20 -60 21 -1315 21 l-1291 0 -26 -26z m2484 -284 l0 -131
-1165 0 -1166 0 0 131 0 131 1166 0 1165 0 0 -131z m0 -646 c0 -236 -3 -325
-12 -325 -7 0 -101 25 -209 57 -109 32 -212 58 -229 58 -46 0 -85 -36 -85 -79
0 -19 25 -125 57 -234 32 -110 58 -204 58 -211 0 -8 -261 -11 -955 -11 l-956
0 0 535 0 536 1166 0 1165 0 0 -326z m-100 -498 c75 -24 188 -58 250 -75 62
-16 113 -35 113 -40 0 -5 -20 -31 -44 -56 -39 -43 -42 -51 -37 -90 5 -37 20
-57 119 -156 l113 -114 -57 -58 c-31 -31 -62 -57 -68 -57 -6 0 -59 48 -118
107 -108 108 -108 108 -160 108 -47 0 -56 -4 -99 -47 -34 -33 -49 -42 -53 -31
-3 8 -18 60 -33 115 -15 54 -48 163 -72 241 -25 78 -49 158 -53 177 l-8 35 36
-8 c19 -4 96 -27 171 -51z"/>
<path d="M1548 3471 c-25 -26 -25 -27 -25 -231 0 -218 5 -248 48 -267 18 -8
151 -12 409 -12 l383 0 26 26 c26 25 26 26 26 245 0 215 0 219 -24 242 -24 22
-28 23 -421 23 l-396 0 -26 -26z m689 -242 l0 -89 -268 0 -268 0 0 89 0 89
268 0 268 0 0 -89z"/>
<path d="M2357 1591 c-18 -18 -26 -37 -26 -63 0 -26 8 -46 26 -64 l26 -25 305
0 305 0 26 25 c18 18 26 38 26 64 0 26 -8 45 -26 63 l-26 26 -305 0 -305 0
-26 -26z"/>
</g>
</svg>
