<?xml version="1.0" standalone="no"?>
<!DOCTYPE svg PUBLIC "-//W3C//DTD SVG 20010904//EN"
 "http://www.w3.org/TR/2001/REC-SVG-20010904/DTD/svg10.dtd">
<svg version="1.0" xmlns="http://www.w3.org/2000/svg"
 width="512.000000pt" height="477.921296pt" viewBox="0 0 512.000000 477.921296"
 preserveAspectRatio="xMidYMid meet">
<metadata>
Created by Potrace Professional 1.1m
</metadata>
<g transform="translate(-0.000000,477.921296) rotate(-360.00) scale(0.095238,-0.095238)"
fill="#000000" stroke="none">
<path d="M1350 4474 c-899 -373 -1318 -552 -1331 -568 -26 -32 -24 -78 5 -108
15 -18 175 -89 475 -212 433 -179 652 -269 1700 -703 259 -107 479 -195 489
-195 10 0 235 90 500 199 507 210 529 222 529 285 0 41 -41 83 -83 83 -17 0
-237 -85 -488 -190 l-457 -189 -1176 486 c-647 267 -1177 489 -1177 492 0 2
530 224 1177 491 l1176 486 1120 -464 c617 -255 1146 -474 1176 -486 30 -12
55 -25 55 -27 0 -6 -894 -377 -976 -406 l-48 -17 -485 181 -486 182 0 53 c-1
72 -29 129 -89 182 -74 66 -147 90 -268 90 -121 0 -194 -24 -268 -90 -117
-102 -119 -245 -5 -347 114 -103 296 -126 459 -59 l52 22 503 -187 503 -187 3
-1105 3 -1104 -36 -22 c-92 -57 -136 -132 -137 -231 0 -128 86 -236 209 -264
260 -58 435 264 245 451 -19 19 -48 42 -64 50 l-28 15 0 253 0 253 75 70 c94
87 186 210 240 321 l42 86 0 328 c0 360 -3 375 -62 399 -37 16 -68 8 -96 -23
-20 -21 -21 -38 -21 -341 l0 -318 -33 -65 c-18 -36 -57 -98 -86 -137 l-54 -72
-3 549 c-1 302 1 552 5 556 5 4 275 117 602 250 421 173 600 251 616 270 20
21 24 39 24 93 0 81 -14 116 -54 132 -58 24 -114 -11 -124 -77 l-6 -34 -525
-217 c-288 -119 -528 -217 -533 -218 -5 0 -7 35 -5 79 l3 80 603 249 c406 168
609 258 622 274 26 32 24 77 -5 109 -16 18 -410 186 -1334 567 -721 298 -1321
542 -1333 541 -13 0 -614 -245 -1335 -544z m1453 -560 c56 -29 73 -53 58 -79
-7 -10 -32 -29 -58 -42 -88 -45 -249 -21 -288 42 -28 47 66 103 173 103 51 0
81 -7 115 -24z m1289 -3044 c64 -61 -6 -176 -88 -145 -38 15 -55 40 -56 83 0
75 88 114 144 62z"/>
<path d="M46 3663 c-33 -16 -46 -54 -46 -130 0 -55 4 -72 24 -93 15 -17 118
-65 296 -138 150 -62 533 -220 851 -352 1341 -555 1498 -619 1518 -619 28 0
1013 408 1045 433 30 24 34 84 9 120 -37 54 -47 51 -567 -165 l-488 -201
-1252 518 c-1165 482 -1252 520 -1255 545 -9 75 -71 113 -135 82z"/>
<path d="M946 2768 c-51 -28 -53 -42 -53 -393 l0 -330 43 -84 c207 -398 656
-713 1175 -825 271 -59 656 -75 927 -39 225 30 472 98 631 175 76 36 90 53 90
104 0 76 -73 105 -156 63 -167 -85 -581 -179 -790 -179 l-30 0 -3 421 -3 421
-29 25 c-38 33 -82 33 -120 0 l-29 -25 -3 -421 -3 -421 -34 0 c-64 0 -301 31
-399 52 -219 48 -448 143 -623 259 -159 106 -339 294 -428 446 l-27 48 -1 304
c0 178 -4 320 -11 343 -7 26 -20 44 -41 55 -37 19 -50 19 -83 1z"/>
<path d="M3703 512 c-35 -35 -129 -410 -113 -451 13 -35 50 -61 88 -61 57 0
73 32 126 244 27 108 50 206 50 218 0 64 -104 97 -151 50z"/>
<path d="M4236 510 c-14 -14 -25 -36 -25 -48 0 -12 22 -110 49 -218 53 -212
69 -244 126 -244 38 0 75 26 88 61 16 41 -78 416 -113 451 -33 33 -91 32 -125
-2z"/>
<path d="M3992 441 c-45 -18 -56 -71 -53 -239 4 -151 4 -151 33 -177 38 -32
82 -32 120 0 29 26 29 26 33 177 3 172 -8 221 -56 239 -33 12 -45 12 -77 0z"/>
</g>
</svg>
