<?xml version="1.0" standalone="no"?>
<!DOCTYPE svg PUBLIC "-//W3C//DTD SVG 20010904//EN"
 "http://www.w3.org/TR/2001/REC-SVG-20010904/DTD/svg10.dtd">
<svg version="1.0" xmlns="http://www.w3.org/2000/svg"
 width="460.019597pt" height="512.294367pt" viewBox="0 0 460.019597 512.294367"
 preserveAspectRatio="xMidYMid meet">
<metadata>
Created by Potrace Professional 1.1m
</metadata>
<g transform="translate(-0.990202,512.102661) rotate(-360.00) scale(0.095238,-0.095238)"
fill="#000000" stroke="none">
<path d="M514 5345 l-31 -30 0 -211 0 -211 -187 0 c-107 0 -202 -5 -220 -11
-71 -25 -65 168 -66 -2266 l0 -2204 28 -27 28 -28 2360 0 2359 0 28 28 27 27
0 2204 c0 2434 6 2241 -65 2266 -18 6 -113 11 -220 11 l-187 0 0 211 0 211
-31 30 c-42 43 -95 43 -138 0 l-31 -30 0 -211 1 -211 -268 0 -268 0 0 211 0
211 -31 30 c-42 43 -95 43 -138 0 l-30 -30 0 -211 0 -211 -268 0 -268 0 0 199
c0 216 -6 244 -54 269 -44 23 -79 18 -116 -16 l-35 -30 -3 -211 -3 -211 -261
0 -262 0 -3 211 -3 211 -35 30 c-36 33 -69 38 -113 18 -51 -23 -57 -52 -57
-270 l0 -200 -268 0 -267 0 0 211 0 211 -31 30 c-23 23 -41 31 -69 31 -29 0
-47 -8 -69 -31 l-31 -30 0 -211 0 -211 -268 0 -267 0 0 211 0 211 -31 30 c-23
23 -41 31 -69 31 -29 0 -47 -8 -69 -31z m-31 -819 c0 -151 1 -158 25 -186 21
-25 34 -30 75 -30 40 0 53 5 74 30 25 28 26 35 26 186 l0 157 267 0 268 0 0
-148 c0 -161 9 -195 57 -217 45 -21 79 -15 112 18 l30 30 1 159 0 158 267 0
268 0 0 -148 c0 -119 3 -154 17 -178 35 -59 101 -68 153 -21 l35 30 3 159 4
158 261 0 260 0 4 -158 3 -159 35 -30 c52 -47 118 -38 153 21 14 24 17 59 17
178 l0 148 268 0 268 0 0 -158 0 -159 30 -30 c34 -34 70 -39 115 -16 46 24 54
56 54 216 l0 147 268 0 268 0 0 -157 c-1 -151 0 -158 25 -186 21 -25 34 -30
74 -30 41 0 54 5 75 30 24 28 25 35 25 186 l0 157 137 0 136 0 0 -467 0 -467
-2215 0 -2216 0 0 467 0 467 137 0 136 0 0 -157z m4158 -2473 l0 -1496 -2215
0 -2216 0 0 1496 0 1496 2216 0 2215 0 0 -1496z"/>
<path d="M488 3198 c-41 -18 -57 -38 -64 -83 -6 -32 -1 -42 38 -85 l45 -49
-26 -28 c-50 -53 -64 -84 -57 -122 8 -39 29 -63 73 -79 36 -14 84 4 122 45 14
15 30 28 36 28 6 0 28 -17 48 -36 53 -51 107 -55 151 -10 44 43 39 97 -13 154
l-41 44 41 44 c32 34 41 53 41 82 0 49 -25 85 -68 99 -42 14 -73 4 -125 -42
l-38 -33 -42 38 c-23 20 -46 38 -52 38 -5 0 -16 2 -23 4 -8 3 -28 -1 -46 -9z"/>
<path d="M1073 3197 c-39 -17 -66 -68 -58 -112 3 -15 22 -43 41 -62 20 -19 36
-39 36 -45 0 -6 -17 -28 -38 -50 -28 -28 -38 -48 -39 -75 -1 -48 27 -89 69
-100 44 -12 81 1 119 41 16 17 35 31 41 31 7 0 25 -14 42 -31 37 -40 75 -53
118 -41 43 11 70 52 69 100 -1 27 -11 47 -39 75 -21 22 -37 44 -37 50 0 6 16
26 35 45 20 19 38 47 41 62 9 44 -18 95 -58 112 -47 19 -83 10 -124 -32 -20
-20 -40 -36 -46 -36 -6 0 -27 16 -48 35 -45 44 -78 52 -124 33z"/>
<path d="M1670 3201 c-39 -15 -63 -51 -63 -96 0 -32 8 -48 41 -84 l41 -45 -41
-44 c-52 -55 -57 -110 -14 -153 47 -47 98 -43 162 11 l43 37 33 -32 c45 -43
84 -57 120 -43 44 16 65 40 72 79 7 38 -7 69 -55 120 l-25 27 22 20 c84 76 78
169 -14 204 -37 14 -75 0 -120 -44 l-33 -32 -39 34 c-35 30 -79 54 -97 52 -4
0 -19 -5 -33 -11z"/>
<path d="M2271 3206 c-31 -6 -76 -62 -76 -94 0 -34 22 -76 56 -108 l28 -26
-31 -32 c-62 -66 -69 -115 -25 -163 46 -49 102 -47 160 6 l43 38 42 -38 c58
-53 114 -55 160 -6 44 48 37 97 -25 163 l-31 32 28 26 c61 57 72 116 30 165
-45 54 -106 51 -170 -11 l-34 -32 -42 38 c-23 21 -47 39 -52 39 -5 0 -16 1
-24 3 -7 2 -24 2 -37 0z"/>
<path d="M2851 3198 c-42 -18 -58 -38 -65 -83 -5 -32 -1 -42 39 -85 l45 -49
-27 -28 c-49 -53 -63 -84 -56 -122 7 -39 28 -63 72 -79 36 -14 84 4 122 45 14
15 29 28 34 28 5 0 25 -16 45 -36 55 -53 110 -57 157 -10 43 43 38 97 -14 154
l-41 44 41 44 c32 34 42 53 42 82 0 49 -25 85 -68 99 -42 14 -74 4 -126 -42
l-38 -33 -42 38 c-23 20 -46 38 -51 38 -5 0 -16 2 -24 4 -7 3 -28 -1 -45 -9z"/>
<path d="M3436 3197 c-40 -17 -67 -68 -58 -112 3 -15 21 -43 41 -62 19 -19 36
-39 36 -45 0 -6 -17 -28 -38 -50 -28 -28 -38 -48 -39 -75 -1 -48 26 -89 69
-100 43 -12 81 1 118 41 17 17 35 31 42 31 6 0 25 -14 41 -31 38 -40 75 -53
119 -41 42 11 70 52 69 100 -1 27 -11 47 -39 75 -21 22 -38 44 -38 50 0 6 12
22 28 36 15 14 34 41 42 60 29 69 -37 146 -114 132 -15 -3 -43 -22 -62 -41
-19 -20 -39 -36 -45 -36 -6 0 -28 16 -48 35 -45 44 -79 52 -124 33z"/>
<path d="M4032 3201 c-39 -15 -63 -51 -63 -96 0 -32 8 -48 41 -84 l41 -45 -41
-44 c-52 -55 -57 -110 -13 -153 44 -45 95 -41 159 11 l46 37 33 -32 c45 -43
83 -57 120 -43 43 16 64 40 72 79 7 37 -16 86 -58 124 -21 19 -21 19 15 61 63
74 57 143 -17 179 -46 22 -81 13 -132 -37 l-34 -32 -38 34 c-35 30 -79 54 -98
52 -4 0 -19 -5 -33 -11z"/>
<path d="M477 2592 c-12 -6 -30 -25 -41 -42 -25 -43 -14 -88 33 -137 l38 -39
-38 -42 c-21 -23 -41 -54 -45 -69 -14 -56 40 -121 101 -121 30 0 73 24 104 57
l25 27 46 -42 c58 -54 105 -57 151 -11 46 46 43 99 -8 155 l-40 43 40 44 c52
59 54 112 7 160 -28 28 -37 31 -75 26 -31 -4 -54 -17 -84 -46 l-40 -40 -24 27
c-51 58 -100 75 -150 50z"/>
<path d="M1052 2578 c-55 -46 -51 -107 11 -171 l33 -34 -33 -34 c-62 -64 -66
-125 -11 -171 47 -40 93 -35 148 15 l44 41 46 -41 c56 -50 100 -54 146 -15 55
46 51 107 -11 171 l-33 34 33 34 c62 64 66 125 11 171 -49 41 -96 33 -161 -28
l-32 -30 -26 27 c-57 61 -116 72 -165 31z"/>
<path d="M1639 2575 c-48 -48 -45 -100 9 -162 l41 -47 -41 -41 c-54 -52 -58
-105 -11 -152 46 -46 94 -43 152 11 l45 42 25 -27 c31 -33 75 -57 105 -57 61
0 114 65 100 121 -4 15 -24 46 -45 69 l-38 42 38 39 c48 49 59 94 33 137 -40
67 -102 71 -168 10 l-47 -43 -41 39 c-28 28 -52 41 -83 45 -37 5 -46 2 -74
-26z"/>
<path d="M2244 2587 c-31 -17 -49 -52 -49 -94 0 -16 17 -44 43 -73 l43 -47
-43 -47 c-55 -60 -59 -107 -13 -153 47 -47 94 -43 153 12 l48 44 47 -44 c59
-55 106 -59 153 -12 46 46 42 93 -13 153 l-43 47 43 47 c47 51 54 81 29 130
-17 32 -56 54 -96 54 -16 0 -45 -17 -73 -43 l-47 -44 -48 44 c-51 47 -84 54
-134 26z"/>
<path d="M2975 2463 c-40 -18 -56 -45 -56 -94 0 -56 39 -95 94 -95 37 0 50 6
75 34 39 44 40 86 2 127 -36 39 -71 47 -115 28z"/>
<path d="M3570 2466 c-90 -35 -79 -170 15 -194 34 -8 86 12 106 42 36 51 9
132 -50 153 -37 13 -37 13 -71 -1z"/>
<path d="M4162 2468 c-33 -14 -67 -62 -67 -97 0 -22 11 -43 37 -69 33 -32 41
-36 76 -30 51 8 87 48 87 97 0 48 -15 74 -53 93 -34 18 -48 19 -80 6z"/>
<path d="M590 1843 c-28 -24 -33 -36 -33 -74 0 -38 5 -50 32 -72 46 -39 96
-37 138 5 28 28 31 37 26 75 -7 54 -35 82 -88 89 -34 4 -47 0 -75 -23z"/>
<path d="M1175 1838 c-64 -64 -20 -168 73 -168 53 0 96 45 96 101 0 52 -47 98
-100 98 -28 0 -46 -8 -69 -31z"/>
<path d="M1769 1845 c-18 -16 -29 -38 -33 -67 -5 -39 -2 -48 26 -76 43 -43
102 -45 142 -5 88 88 -41 229 -135 148z"/>
<path d="M2372 1853 c-34 -18 -56 -69 -47 -105 18 -74 117 -105 169 -53 87 87
-14 217 -122 158z"/>
<path d="M2951 1842 c-26 -23 -32 -35 -32 -72 0 -94 102 -136 169 -70 90 90
-39 224 -137 142z"/>
<path d="M3538 1838 c-23 -22 -31 -40 -31 -69 0 -53 46 -99 100 -99 53 0 100
46 100 99 0 54 -47 100 -100 100 -29 0 -47 -8 -69 -31z"/>
<path d="M4148 1856 c-91 -47 -54 -186 50 -186 59 0 97 39 97 100 0 37 -6 49
-33 72 -35 29 -74 34 -114 14z"/>
<path d="M612 1255 c-64 -28 -77 -111 -25 -164 64 -64 169 -15 169 79 0 32
-48 86 -84 94 -14 3 -41 -1 -60 -9z"/>
<path d="M1221 1262 c-55 -8 -94 -97 -66 -150 31 -56 127 -64 168 -13 59 75
-5 178 -102 163z"/>
<path d="M2383 1252 c-70 -35 -79 -114 -19 -165 18 -15 45 -26 62 -26 37 0 90
44 99 82 18 81 -67 146 -142 109z"/>
<path d="M4171 1263 c-12 -2 -35 -19 -49 -36 -82 -97 53 -225 142 -136 33 33
41 88 19 129 -9 17 -74 54 -85 49 -2 -1 -14 -3 -27 -6z"/>
<path d="M1760 1228 c-31 -37 -35 -71 -12 -114 47 -92 184 -52 184 53 0 59
-36 93 -98 93 -40 0 -51 -5 -74 -32z"/>
<path d="M2945 1234 c-38 -38 -36 -102 5 -143 64 -65 169 -15 169 81 0 15 -13
40 -31 57 -41 41 -105 43 -143 5z"/>
<path d="M3548 1247 c-47 -36 -54 -107 -16 -152 21 -24 34 -29 75 -29 40 0 53
5 74 29 58 68 15 165 -73 165 -24 -1 -51 -6 -60 -13z"/>
<path d="M373 174 c-51 -50 -42 -128 16 -159 45 -23 4028 -23 4073 0 58 31 67
109 16 159 l-25 25 -2028 0 -2027 1 -25 -26z"/>
</g>
</svg>
