<svg width="0" height="0" class="hidden">
  <symbol version="1" xmlns="http://www.w3.org/2000/svg" viewBox="0 0 512 477.921" id="i-1">
    <path d="M128.571 51.826C42.952 87.35 3.048 104.398 1.81 105.922c-2.477 3.047-2.286 7.428.476 10.285 1.428 1.715 16.666 8.477 45.238 20.19 41.238 17.048 62.095 25.62 161.904 66.953 24.667 10.19 45.62 18.572 46.572 18.572.952 0 22.38-8.572 47.619-18.953 48.285-20 50.38-21.143 50.38-27.143 0-3.904-3.904-7.904-7.904-7.904-1.62 0-22.572 8.095-46.476 18.095l-43.524 18-112-46.286C82.476 132.303 32 111.16 32 110.874c0-.19 50.476-21.333 112.095-46.762l112-46.285 106.667 44.19c58.761 24.286 109.142 45.143 112 46.286 2.857 1.142 5.238 2.38 5.238 2.571 0 .571-85.143 35.905-92.953 38.667l-4.571 1.619-46.19-17.238L290 116.588v-5.047c-.096-6.857-2.762-12.286-8.476-17.334-7.048-6.285-14-8.571-25.524-8.571-11.524 0-18.476 2.286-25.524 8.571-11.143 9.715-11.333 23.334-.476 33.048 10.857 9.81 28.19 12 43.714 5.619l4.952-2.095 47.905 17.81 47.905 17.809.286 105.238.285 105.143-3.428 2.095c-8.762 5.428-12.953 12.571-13.048 22 0 12.19 8.19 22.476 19.905 25.143 24.762 5.523 41.428-25.143 23.333-42.953-1.81-1.81-4.571-4-6.095-4.762l-2.667-1.428v-48.191l7.143-6.666c8.952-8.286 17.714-20 22.857-30.572l4-8.19v-31.238c0-34.286-.286-35.714-5.905-38-3.523-1.524-6.476-.762-9.142 2.19-1.905 2-2 3.62-2 32.476v30.286l-3.143 6.19c-1.715 3.43-5.429 9.334-8.19 13.048l-5.144 6.857-.285-52.285c-.096-28.762.095-52.572.476-52.953.476-.38 26.19-11.143 57.333-23.81 40.095-16.475 57.143-23.904 58.667-25.713 1.905-2 2.285-3.715 2.285-8.858 0-7.714-1.333-11.047-5.142-12.571-5.524-2.286-10.857 1.048-11.81 7.333l-.571 3.238-50 20.667c-27.429 11.333-50.286 20.667-50.762 20.762-.476 0-.667-3.333-.476-7.524l.285-7.619 57.429-23.714c38.667-16 58-24.572 59.238-26.095 2.476-3.048 2.286-7.334-.476-10.381-1.524-1.715-39.048-17.715-127.048-54C314 23.16 256.856-.08 255.714.017c-1.238 0-58.476 23.333-127.143 51.81zm138.381 53.334c5.333 2.762 6.952 5.047 5.524 7.524-.667.952-3.048 2.761-5.524 4-8.38 4.285-23.714 2-27.428-4-2.667-4.477 6.285-9.81 16.476-9.81 4.857 0 7.714.667 10.952 2.286zm122.762 289.904c6.095 5.81-.572 16.762-8.381 13.81-3.62-1.429-5.238-3.81-5.333-7.905 0-7.143 8.38-10.857 13.714-5.905z"></path>
    <path d="M4.38 129.065C1.239 130.588 0 134.207 0 141.445c0 5.239.381 6.858 2.286 8.858 1.428 1.619 11.238 6.19 28.19 13.142 14.286 5.905 50.762 20.953 81.048 33.524 127.714 52.857 142.666 58.953 144.571 58.953 2.667 0 96.476-38.858 99.524-41.239 2.857-2.285 3.238-8 .857-11.428-3.524-5.143-4.476-4.857-54 15.714L256 238.112l-119.238-49.333C25.809 142.874 17.524 139.255 17.238 136.874c-.857-7.143-6.762-10.762-12.857-7.81zm85.715 85.238c-4.857 2.666-5.047 4-5.047 37.428v31.429l4.095 8c19.714 37.904 62.476 67.904 111.904 78.57 25.81 5.62 62.477 7.144 88.286 3.715 21.429-2.857 44.952-9.333 60.095-16.666 7.238-3.429 8.572-5.048 8.572-9.905 0-7.238-6.953-10-14.857-6-15.905 8.095-55.334 17.047-75.239 17.047h-2.857l-.285-40.095-.286-40.095-2.762-2.38c-3.619-3.144-7.81-3.144-11.429 0l-2.761 2.38-.286 40.095-.286 40.095h-3.238c-6.095 0-28.667-2.952-38-4.952-20.857-4.571-42.667-13.619-59.333-24.667-15.143-10.095-32.286-28-40.762-42.476l-2.571-4.571-.096-28.953c0-16.952-.38-30.476-1.047-32.666-.667-2.476-1.905-4.19-3.905-5.238-3.524-1.81-4.762-1.81-7.905-.095zM352.666 429.16c-3.333 3.333-12.285 39.047-10.762 42.952 1.239 3.333 4.762 5.81 8.381 5.81 5.429 0 6.953-3.048 12-23.239 2.572-10.285 4.762-19.619 4.762-20.762 0-6.095-9.904-9.238-14.38-4.762zm50.762.19c-1.333 1.333-2.38 3.428-2.38 4.571 0 1.143 2.094 10.477 4.666 20.762 5.047 20.19 6.571 23.238 12 23.238 3.619 0 7.143-2.476 8.38-5.81 1.525-3.904-7.428-39.618-10.761-42.952-3.143-3.142-8.667-3.047-11.905.19zm-23.238 6.571c-4.286 1.715-5.333 6.762-5.048 22.762.381 14.381.381 14.381 3.143 16.857 3.62 3.048 7.81 3.048 11.429 0 2.762-2.476 2.762-2.476 3.143-16.857.285-16.38-.762-21.047-5.334-22.762-3.142-1.143-4.285-1.143-7.333 0z"></path>
  </symbol>
  <symbol version="1" xmlns="http://www.w3.org/2000/svg" viewBox="0 0 511 495.24" id="i-2">
    <path d="M25.69 1.264c-2.857.762-6.476 2.096-8 2.858C12.262 6.979 5.595 13.836 2.833 19.55l-2.857 5.714v342l2.667 5.62c3.333 7.237 9.524 13.332 16.667 16.666l5.714 2.666 89.238.286 89.238.286v4c0 2.286-.762 7.333-1.62 11.238-3.618 16.286-11.333 27.143-22.666 32.286-5.81 2.571-7.333 2.857-23.714 3.333-15.62.571-18 .857-22.19 2.952-8.858 4.286-14.286 13.143-14.191 23.143.095 10.286 5.619 18.762 15.428 23.333l4.477 2.19h232.952l4.571-2.19c13.905-6.571 19.524-22.38 12.476-35.142-6.19-11.238-12.857-14.19-31.619-14.19-20.095 0-28.666-2.667-36.761-11.525-7.048-7.523-13.143-24.095-13.143-35.428v-4l89.238-.286 89.238-.286 5.714-2.666c7.143-3.334 13.333-9.429 16.667-16.667l2.666-5.619v-342l-2.857-5.714c-3.428-7.143-10.857-13.905-18.476-17.047L483.976.217 257.5.027C64.262-.07 30.262.026 25.69 1.263zM485.5 20.026c3.047 1.62 5.142 3.715 6.666 6.667l2.286 4.38V169.36l.095 138.381H477.5V39.645l-2.477-2.476-2.476-2.476H38.452l-2.476 2.476-2.476 2.476V307.74H16.548V31.074l2.285-4.381c1.524-2.952 3.62-5.048 6.667-6.667l4.286-2.285h451.428l4.286 2.285zm-25.24 159.429l-.285 127.81H51.024l-.286-127.81-.286-127.714h410.095l-.286 127.714zm34.096 165.238l-.381 19.904-3.048 3.81c-1.714 2.095-4.571 4.667-6.476 5.619-3.238 1.619-16.286 1.714-228.952 1.714-212.667 0-225.714-.095-228.952-1.714-1.905-.952-4.762-3.524-6.477-5.62l-3.047-3.809-.381-19.904-.286-20h478.286l-.285 20zm-204.381 52.762c2.38 18.952 6.857 32.285 14.095 42 1.333 1.714 2.476 3.428 2.476 3.714 0 .285-22.952.571-51.047.571-28.095 0-50.953-.286-50.953-.571 0-.286 1.048-2 2.381-3.715 7.238-9.714 11.715-23.047 14.096-42l.571-4.761h67.809l.572 4.762zm82.095 66.57c3.143 3.715 3.143 8.096 0 11.239l-2.476 2.476h-228.19l-2.477-2.476c-4.095-4.095-2.476-11.333 2.953-13.524 1.143-.476 52.571-.762 114.952-.667l112.857.191 2.381 2.762z"></path>
    <path d="M112.928 71.17l-2.38 2.475v84.476c0 81.62 0 84.477 1.904 86.762l1.905 2.381 100.762.476 100.762.477 4.19 14c5.143 17.333 5.048 17.047 8 18.38 5.143 2.381 7.333 1.429 15.048-6l7.428-7.238 11.81 11.715c12 11.81 13.905 12.952 18.285 10.571 1.048-.571 8-7.143 15.429-14.571 17.714-17.905 17.62-16.762 2.095-32.572l-11.333-11.524 6.857-7.047c5.429-5.524 6.857-7.62 6.857-10-.095-5.905-3.238-8-19.047-12.572l-14.477-4.285-.476-62.19-.571-62.286-2.381-1.905c-2.286-1.905-5.714-2-125.238-2H115.405l-2.477 2.476zM349.5 98.216v12.476h-222V85.74h222v12.476zm0 61.523c0 22.477-.286 30.953-1.143 30.953-.667 0-9.62-2.381-19.905-5.429-10.38-3.047-20.19-5.524-21.81-5.524-4.38 0-8.095 3.429-8.095 7.524 0 1.81 2.381 11.905 5.429 22.286 3.048 10.476 5.524 19.428 5.524 20.095 0 .762-24.857 1.048-90.953 1.048H127.5v-102h222v31.047zm-9.524 47.429c7.143 2.286 17.905 5.524 23.81 7.143 5.904 1.524 10.761 3.333 10.761 3.81 0 .476-1.905 2.952-4.19 5.333-3.715 4.095-4 4.857-3.524 8.571.476 3.524 1.905 5.429 11.333 14.857l10.762 10.857-5.428 5.524c-2.953 2.953-5.905 5.429-6.477 5.429-.571 0-5.619-4.572-11.238-10.19-10.285-10.286-10.285-10.286-15.238-10.286-4.476 0-5.333.38-9.428 4.476-3.238 3.143-4.667 4-5.048 2.952-.286-.762-1.714-5.714-3.143-10.952-1.428-5.143-4.571-15.524-6.857-22.953-2.38-7.428-4.667-15.047-5.048-16.857l-.761-3.333 3.428.762c1.81.38 9.143 2.571 16.286 4.857z"></path>
    <path d="M146.928 165.169c-2.38 2.476-2.38 2.571-2.38 22 0 20.762.476 23.619 4.57 25.429 1.715.761 14.382 1.142 38.953 1.142h36.476l2.477-2.476c2.476-2.38 2.476-2.476 2.476-23.333 0-20.476 0-20.857-2.286-23.048-2.286-2.095-2.667-2.19-40.095-2.19h-37.714l-2.477 2.476zm65.62 23.048v8.476H161.5V179.74h51.047v8.477zm11.428 155.999c-1.714 1.715-2.476 3.524-2.476 6 0 2.477.762 4.381 2.476 6.096l2.476 2.38h58.095l2.477-2.38c1.714-1.715 2.476-3.62 2.476-6.096s-.762-4.285-2.476-6l-2.477-2.476h-58.095l-2.476 2.476z"></path>
  </symbol>
  <symbol version="1" xmlns="http://www.w3.org/2000/svg" viewBox="0 0 460.02 512.294" id="i-3">
    <path d="M47.962 3.056L45.01 5.913v40.19H27.2c-10.19 0-19.238.476-20.952 1.048-6.762 2.38-6.19-16-6.286 215.81v209.904l2.667 2.571 2.667 2.667h449.428l2.666-2.667 2.572-2.571V262.96c0-231.81.571-213.428-6.19-215.81-1.715-.57-10.763-1.047-20.953-1.047h-17.81V5.913l-2.952-2.857c-4-4.096-9.048-4.096-13.143 0l-2.952 2.857v20.095l.095 20.095h-51.048V5.913l-2.952-2.857c-4-4.096-9.048-4.096-13.143 0l-2.857 2.857v40.19H275.01V27.151c0-20.572-.572-23.238-5.143-25.62-4.19-2.19-7.524-1.714-11.048 1.525l-3.333 2.857-.286 20.095-.286 20.095h-49.809l-.286-20.095-.286-20.095-3.333-2.857c-3.428-3.143-6.571-3.62-10.762-1.715-4.857 2.19-5.428 4.953-5.428 25.715v19.047h-50.953V5.913l-2.952-2.857C128.915.866 127.2.103 124.533.103c-2.761 0-4.476.762-6.57 2.953l-2.953 2.857v40.19H64.057V5.913l-2.952-2.857C58.915.866 57.2.103 54.534.103c-2.762 0-4.477.762-6.572 2.953zm-2.952 78c0 14.38.095 15.047 2.38 17.714 2 2.38 3.239 2.857 7.144 2.857 3.81 0 5.047-.476 7.047-2.857 2.381-2.667 2.476-3.334 2.476-17.715V66.103h50.953v14.095c0 15.334.857 18.572 5.428 20.667 4.286 2 7.524 1.429 10.667-1.714l2.857-2.857.095-15.143V66.103h50.953v14.095c0 11.334.285 14.667 1.619 16.953 3.333 5.619 9.619 6.476 14.571 2l3.333-2.857.286-15.143.381-15.048h49.619l.381 15.048.286 15.143 3.333 2.857c4.952 4.476 11.238 3.619 14.571-2 1.334-2.286 1.62-5.62 1.62-16.953V66.103h51.047v30.191l2.857 2.857c3.238 3.238 6.667 3.714 10.953 1.524 4.38-2.286 5.142-5.334 5.142-20.572v-14h51.048v14.952c-.095 14.381 0 15.048 2.381 17.715 2 2.38 3.238 2.857 7.048 2.857 3.904 0 5.142-.476 7.142-2.857 2.286-2.667 2.381-3.334 2.381-17.715V66.103h26v88.952H19.01V66.103h26v14.952zm396 235.523v142.476h-422V174.103h421.999v142.476z"></path>
    <path d="M45.486 207.532c-3.905 1.714-5.429 3.619-6.095 7.904-.572 3.048-.096 4 3.619 8.096l4.285 4.666-2.476 2.667c-4.762 5.047-6.095 8-5.428 11.619.762 3.714 2.762 6 6.952 7.524 3.429 1.333 8-.381 11.62-4.286 1.332-1.429 2.856-2.667 3.428-2.667.571 0 2.666 1.62 4.571 3.429 5.048 4.857 10.19 5.238 14.381.952 4.19-4.095 3.714-9.238-1.238-14.666l-3.905-4.19 3.905-4.191c3.048-3.238 3.905-5.048 3.905-7.81 0-4.667-2.381-8.095-6.476-9.428-4-1.334-6.953-.381-11.905 4l-3.62 3.142-4-3.619c-2.19-1.904-4.38-3.619-4.952-3.619-.476 0-1.523-.19-2.19-.38-.762-.286-2.667.095-4.381.857zm55.714.095c-3.714 1.619-6.286 6.476-5.524 10.666.286 1.429 2.096 4.096 3.905 5.905 1.905 1.81 3.429 3.714 3.429 4.286 0 .571-1.62 2.667-3.62 4.762-2.666 2.666-3.618 4.571-3.714 7.143-.095 4.571 2.572 8.476 6.572 9.523 4.19 1.143 7.714-.095 11.333-3.904 1.524-1.62 3.333-2.953 3.905-2.953.667 0 2.38 1.334 4 2.953 3.524 3.81 7.143 5.047 11.238 3.904 4.095-1.047 6.667-4.952 6.571-9.523-.095-2.572-1.047-4.477-3.714-7.143-2-2.095-3.524-4.19-3.524-4.762 0-.572 1.524-2.476 3.334-4.286 1.904-1.81 3.619-4.476 3.904-5.905.858-4.19-1.714-9.047-5.523-10.666-4.477-1.81-7.905-.953-11.81 3.047-1.905 1.905-3.81 3.429-4.38 3.429-.572 0-2.572-1.524-4.572-3.333-4.286-4.19-7.429-4.953-11.81-3.143zm56.857-.381c-3.714 1.428-6 4.857-6 9.143 0 3.047.762 4.571 3.905 8l3.905 4.285-3.905 4.19c-4.952 5.239-5.429 10.477-1.333 14.572 4.476 4.476 9.333 4.095 15.428-1.047l4.095-3.524 3.143 3.047c4.286 4.096 8 5.429 11.429 4.096 4.19-1.524 6.19-3.81 6.857-7.524.667-3.62-.667-6.572-5.238-11.429l-2.381-2.571 2.095-1.905c8-7.238 7.429-16.095-1.333-19.428-3.524-1.334-7.143 0-11.429 4.19l-3.143 3.048-3.714-3.238c-3.333-2.858-7.524-5.143-9.238-4.953-.38 0-1.81.476-3.143 1.048zm57.238-.476c-2.952.571-7.238 5.904-7.238 8.952 0 3.238 2.095 7.238 5.334 10.286l2.666 2.476-2.952 3.048c-5.905 6.285-6.572 10.952-2.381 15.523 4.38 4.667 9.714 4.476 15.238-.571l4.095-3.62 4 3.62c5.524 5.047 10.857 5.238 15.238.571 4.19-4.571 3.524-9.238-2.38-15.523l-2.953-3.048 2.667-2.476c5.81-5.429 6.857-11.048 2.857-15.715-4.286-5.142-10.095-4.857-16.19 1.048l-3.239 3.048-4-3.62c-2.19-2-4.476-3.714-4.952-3.714s-1.524-.095-2.286-.285c-.667-.19-2.286-.19-3.524 0zm55.238.762c-4 1.714-5.523 3.619-6.19 7.904-.476 3.048-.095 4 3.714 8.096l4.286 4.666-2.572 2.667c-4.666 5.047-6 8-5.333 11.619.667 3.714 2.667 6 6.857 7.524 3.429 1.333 8-.381 11.62-4.286 1.333-1.429 2.761-2.667 3.237-2.667.477 0 2.381 1.524 4.286 3.429 5.238 5.047 10.476 5.428 14.952.952 4.096-4.095 3.62-9.238-1.333-14.666l-3.905-4.19 3.905-4.191c3.048-3.238 4-5.048 4-7.81 0-4.667-2.38-8.095-6.476-9.428-4-1.334-7.048-.381-12 4l-3.62 3.142-4-3.619c-2.19-1.904-4.38-3.619-4.856-3.619s-1.524-.19-2.286-.38c-.667-.286-2.667.095-4.286.857zm55.715.095c-3.81 1.619-6.381 6.476-5.524 10.666.285 1.429 2 4.096 3.905 5.905 1.809 1.81 3.428 3.714 3.428 4.286 0 .571-1.619 2.667-3.619 4.762-2.667 2.666-3.619 4.571-3.714 7.143-.095 4.571 2.476 8.476 6.571 9.523 4.095 1.143 7.714-.095 11.238-3.904 1.62-1.62 3.334-2.953 4-2.953.572 0 2.381 1.334 3.905 2.953 3.62 3.81 7.143 5.047 11.333 3.904 4-1.047 6.667-4.952 6.572-9.523-.095-2.572-1.048-4.477-3.715-7.143-2-2.095-3.619-4.19-3.619-4.762 0-.572 1.143-2.095 2.667-3.429 1.429-1.333 3.238-3.904 4-5.714 2.762-6.571-3.524-13.905-10.857-12.571-1.429.285-4.095 2.095-5.905 3.904-1.81 1.905-3.714 3.429-4.285 3.429-.572 0-2.667-1.524-4.572-3.333-4.286-4.19-7.524-4.953-11.81-3.143zm56.762-.381c-3.715 1.428-6 4.857-6 9.143 0 3.047.761 4.571 3.904 8l3.905 4.285-3.905 4.19c-4.952 5.239-5.428 10.477-1.238 14.572 4.19 4.286 9.048 3.905 15.143-1.047l4.38-3.524 3.144 3.047c4.285 4.096 7.904 5.429 11.428 4.096 4.096-1.524 6.096-3.81 6.857-7.524.667-3.524-1.523-8.19-5.523-11.81-2-1.81-2-1.81 1.428-5.81 6-7.047 5.429-13.618-1.619-17.047-4.38-2.095-7.714-1.238-12.571 3.524l-3.238 3.048-3.62-3.238c-3.333-2.858-7.523-5.143-9.333-4.953-.38 0-1.81.476-3.143 1.048zm-338.572 58c-1.143.571-2.857 2.38-3.904 4-2.381 4.095-1.334 8.38 3.142 13.047l3.62 3.715-3.62 4c-2 2.19-3.904 5.142-4.285 6.571-1.334 5.333 3.81 11.524 9.619 11.524 2.857 0 6.952-2.286 9.905-5.429l2.38-2.571 4.381 4c5.524 5.143 10 5.428 14.381 1.047 4.381-4.38 4.096-9.428-.762-14.761l-3.81-4.096 3.81-4.19c4.953-5.62 5.143-10.667.667-15.238-2.667-2.667-3.524-2.953-7.143-2.476-2.952.38-5.143 1.619-8 4.38l-3.81 3.81-2.285-2.571c-4.857-5.524-9.524-7.143-14.286-4.762zM99.2 266.58c-5.238 4.38-4.857 10.19 1.048 16.285l3.143 3.238-3.143 3.238c-5.905 6.095-6.286 11.905-1.048 16.286 4.476 3.81 8.857 3.333 14.095-1.429l4.19-3.905 4.382 3.905c5.333 4.762 9.524 5.143 13.905 1.429 5.238-4.381 4.857-10.19-1.048-16.286l-3.143-3.238 3.143-3.238c5.905-6.095 6.286-11.905 1.048-16.286-4.667-3.905-9.143-3.143-15.334 2.667l-3.047 2.857-2.477-2.572c-5.428-5.809-11.047-6.857-15.714-2.952zm55.905.285c-4.572 4.571-4.286 9.524.857 15.428l3.905 4.477-3.905 3.904c-5.143 4.953-5.524 10-1.048 14.476 4.381 4.381 8.953 4.096 14.477-1.047l4.285-4 2.381 2.571c2.953 3.143 7.143 5.429 10 5.429 5.81 0 10.857-6.19 9.524-11.524-.38-1.429-2.286-4.38-4.286-6.571l-3.619-4 3.62-3.715c4.57-4.666 5.618-8.952 3.142-13.047-3.81-6.381-9.714-6.762-16-.953l-4.476 4.096-3.905-3.715c-2.666-2.666-4.952-3.904-7.905-4.285-3.523-.477-4.38-.19-7.047 2.476zm57.619-1.143c-2.953 1.619-4.667 4.952-4.667 8.952 0 1.524 1.62 4.19 4.095 6.953l4.096 4.476-4.096 4.476c-5.238 5.714-5.619 10.19-1.238 14.571 4.477 4.477 8.953 4.096 14.572-1.142l4.571-4.19 4.476 4.19c5.62 5.238 10.096 5.619 14.572 1.142 4.38-4.38 4-8.857-1.238-14.57l-4.096-4.477 4.096-4.476c4.476-4.857 5.143-7.715 2.762-12.381-1.62-3.048-5.334-5.143-9.143-5.143-1.524 0-4.286 1.619-6.953 4.095l-4.476 4.19-4.571-4.19c-4.857-4.476-8-5.143-12.762-2.476zm69.619 11.809c-3.81 1.715-5.333 4.286-5.333 8.953 0 5.333 3.714 9.047 8.952 9.047 3.524 0 4.762-.571 7.143-3.238 3.714-4.19 3.81-8.19.19-12.095-3.428-3.714-6.762-4.476-10.952-2.667zm56.667-.285c-8.572 3.333-7.524 16.19 1.428 18.476 3.238.762 8.19-1.143 10.095-4 3.429-4.857.857-12.571-4.762-14.571-3.523-1.239-3.523-1.239-6.762.095zm56.38-.191c-3.142 1.334-6.38 5.905-6.38 9.238 0 2.096 1.047 4.096 3.523 6.572 3.143 3.047 3.905 3.428 7.238 2.857 4.857-.762 8.286-4.571 8.286-9.238 0-4.572-1.429-7.048-5.048-8.857-3.238-1.715-4.571-1.81-7.619-.572zM55.2 336.579c-2.666 2.286-3.143 3.429-3.143 7.048s.477 4.762 3.048 6.857c4.38 3.714 9.143 3.524 13.143-.476 2.666-2.667 2.952-3.524 2.476-7.143-.667-5.143-3.333-7.81-8.38-8.476-3.239-.381-4.477 0-7.144 2.19zm55.714.476c-6.095 6.095-1.904 16 6.953 16 5.047 0 9.143-4.286 9.143-9.619 0-4.952-4.477-9.333-9.524-9.333-2.667 0-4.381.762-6.572 2.952zm56.572-.666c-1.714 1.523-2.762 3.619-3.143 6.38-.476 3.715-.19 4.572 2.476 7.239 4.095 4.095 9.714 4.285 13.524.476 8.38-8.381-3.905-21.81-12.857-14.095zm57.428-.762c-3.238 1.714-5.333 6.571-4.476 10 1.714 7.047 11.143 10 16.095 5.047 8.286-8.285-1.333-20.666-11.619-15.047zm55.143 1.047c-2.476 2.19-3.047 3.334-3.047 6.857 0 8.953 9.714 12.953 16.095 6.667 8.571-8.571-3.715-21.333-13.048-13.524zm55.905.381c-2.19 2.095-2.953 3.81-2.953 6.572 0 5.047 4.381 9.428 9.524 9.428 5.048 0 9.524-4.38 9.524-9.428 0-5.143-4.476-9.524-9.524-9.524-2.762 0-4.476.762-6.571 2.952zm58.095-1.715c-8.667 4.477-5.143 17.715 4.762 17.715 5.619 0 9.238-3.714 9.238-9.524 0-3.523-.571-4.666-3.143-6.857-3.333-2.762-7.047-3.238-10.857-1.333zM57.295 392.579c-6.095 2.667-7.333 10.571-2.38 15.619 6.095 6.095 16.095 1.429 16.095-7.524 0-3.047-4.572-8.19-8-8.952-1.334-.286-3.905.095-5.715.857zm58-.667c-5.238.762-8.952 9.238-6.285 14.286 2.952 5.333 12.095 6.095 16 1.238 5.619-7.143-.477-16.952-9.715-15.524zm110.667.953c-6.667 3.333-7.524 10.857-1.81 15.714 1.715 1.429 4.286 2.476 5.905 2.476 3.524 0 8.572-4.19 9.429-7.81 1.714-7.714-6.381-13.904-13.524-10.38zm170.285-1.048c-1.142.19-3.333 1.81-4.666 3.429-7.81 9.238 5.047 21.428 13.524 12.952 3.142-3.143 3.904-8.38 1.81-12.286-.858-1.619-7.048-5.143-8.096-4.666-.19.095-1.333.285-2.572.571zm-229.618 3.333c-2.953 3.524-3.334 6.762-1.143 10.858 4.476 8.761 17.524 4.952 17.524-5.048 0-5.62-3.429-8.857-9.334-8.857-3.81 0-4.857.476-7.047 3.047zm112.857-.571c-3.62 3.619-3.429 9.714.476 13.619 6.095 6.19 16.095 1.429 16.095-7.714 0-1.429-1.238-3.81-2.952-5.429-3.905-3.905-10-4.095-13.62-.476zm57.428-1.239c-4.476 3.43-5.143 10.191-1.524 14.477 2 2.286 3.239 2.762 7.143 2.762 3.81 0 5.048-.476 7.048-2.762 5.524-6.476 1.428-15.714-6.952-15.714-2.286.095-4.858.571-5.715 1.238zM34.534 495.531c-4.858 4.762-4 12.19 1.523 15.143 4.286 2.19 383.619 2.19 387.905 0 5.524-2.952 6.38-10.38 1.524-15.143l-2.381-2.38H229.962l-193.047-.096-2.381 2.476z"></path>
  </symbol>
  <symbol version="1" xmlns="http://www.w3.org/2000/svg" viewBox="0 0 511.37 451.874" id="i-4">
    <path d="M416.39 1.3c-1.714.667-14.762 7.048-29.048 14.287C324.2 47.3 266.58 64.634 190.962 74.634c-9.524 1.238-24.858 1.81-62.572 2.381-55.238.667-53.81.476-64 7.524-7.619 5.238-12.857 12.857-15.333 22.095l-1.143 4.095-11.238.572c-14.667.666-19.524 2.476-26.857 9.619-4.095 4.095-6.286 7.143-7.81 11.524-2.095 5.714-2.19 6.857-1.904 48l.285 42.095 2.476 4.952c3.429 7.048 10.858 13.905 17.62 16.476 4.285 1.62 7.809 2.095 16.38 2.095h10.858l1.142 4.572c2.381 9.714 9.334 19.143 17.62 24 2.38 1.333 4.57 3.238 4.952 4.19.38.953 13.428 37.048 29.047 80.19 17.143 47.144 29.62 80.096 31.238 82.477 1.524 2.19 4.953 5.333 7.62 7.047l4.952 2.953 34.286.286c22.285.19 35.619 0 38.285-.762 5.715-1.524 12.095-6.762 14.953-12.477 2.095-3.904 2.571-6.38 2.571-11.523-.095-5.905-2.38-12.667-25.238-75.524-13.81-37.905-24.952-69.048-24.857-69.143.095-.095 6.38.667 14.095 1.714 48.571 6.19 97.048 18.762 143.429 37.143 9.714 3.81 30.857 13.524 47.142 21.62 28.381 14.095 29.715 14.666 35.429 14.57 4.38 0 7.428-.761 11.047-2.57 5.81-3.048 8.381-5.62 11.62-11.81l2.38-4.476.286-44.19.286-44.191 6.952-1.62c24.19-6 43.143-23.618 51.62-48 2.38-7.142 2.761-9.523 2.761-21.047.095-10.857-.286-14.19-2.286-20.476-4-12.952-8.666-20.571-18.666-30.667-7.714-7.714-10.381-9.714-18.476-13.619-5.238-2.571-12.286-5.143-15.715-5.81l-6.19-1.237-.286-44.096c-.286-39.904-.476-44.476-2.095-48.095-5.333-11.81-20.19-18.476-31.238-14.19zm8.571 177.239c0 104-.38 153.428-1.047 153.428-.572 0-8.381-3.714-17.238-8.38-51.715-26.858-106-46-163.238-57.43-15.238-3.047-44.096-7.428-57.238-8.666l-7.238-.667V101.11l3.238-.476c1.714-.286 5.904-.762 9.238-1.143 71.142-7.143 152-31.905 218-66.952 7.714-4.095 14.285-7.429 14.761-7.429.381-.095.762 68.953.762 153.429zm-271.047 0v76.476H118.2c-33.715 0-36-.095-38.953-2-6.666-4-6.38-.857-6.095-75.429l.286-67.428 2.476-2.667c4.857-5.238 5.81-5.428 43.238-5.428l34.762-.096v76.572zm307.047-41.62c7.143 3.334 17.715 13.905 21.143 21.239 12.286 25.524-.19 55.714-26.762 64.857l-5.428 1.905v-91.905l2.762.571c1.523.381 5.238 1.905 8.285 3.334zM47.914 178.54v42.476H38.39c-14.666 0-13.524 3.524-13.428-41.524 0-24.667.285-38.286 1.047-39.619 1.524-2.952 4.476-3.714 13.62-3.81l8.285-.095v42.572zm131.524 164.19c12.476 34.571 24.476 67.619 26.571 73.524l3.905 10.762-29.238-.19-29.143-.287-26.286-72.57c-14.476-39.81-26.285-72.763-26.285-73.239 0-.38 12.952-.762 28.857-.762h28.857l22.762 62.762z"></path>
  </symbol>
  <symbol version="1" xmlns="http://www.w3.org/2000/svg" viewBox="0 0 430.19 544.469" id="i-5">
    <path d="M117.022 1.399c-4.952 2.19-12.38 9.619-14.476 14.38-.952 2.286-3.047 5.334-4.476 6.762l-2.667 2.381-32.571.096c-18 0-34.476.476-36.762.952-5.428 1.238-10.667 4.476-15.81 9.62C3.214 42.731 1.5 45.683.643 52.255c-.477 3.428-.762 78.476-.667 166.857.19 156.476.286 160.666 2.095 162.761 2 2.096 8.762 2.953 11.238 1.334 3.334-2.286 3.429-3.429 3.429-166.762 0-180.857-.762-164.571 7.619-170.952 4.476-3.429 4.857-3.524 13.428-3.524 8.286 0 8.858.19 10.858 2.667l2.095 2.571V269.97c0 210.857 0 222.761 1.714 224.285.952.857 3.524 2 5.714 2.572 5.715 1.619 308.857 1.619 315.048 0 2.38-.572 5.143-2 6.19-3.048 1.714-1.905 1.81-11.333 2-225.143.286-210.952.381-223.237 2-224.856 2-1.905 3.238-2.096 12.381-1.905 5.905.095 7.048.476 10.857 3.428 2.286 1.81 5.048 4.667 6.095 6.286 1.905 2.857 1.905 7.62 1.905 233.905l.095 231.047-2.476 3.333c-1.428 1.905-4.19 4.572-6.19 6l-3.62 2.572-186 .285-186.094.286-4.095-2.476c-2.381-1.333-5.429-4.19-6.858-6.286l-2.761-3.905v-50.952c0-54.762 0-54.666-5.143-57.238-3.81-1.81-9.429.572-10.572 4.476-.38 1.524-.762 26.667-.762 55.905v53.048l4.381 6.666c3.048 4.667 6.381 8.095 11.048 11.429l6.571 4.762h387.048l6.19-4.381c3.714-2.667 8-6.953 10.476-10.572l4.286-6V47.4l-3.714-5.62c-5.238-7.809-13.524-14-21.048-15.809-5.619-1.238-42.19-1.238-46.857 0-8.857 2.476-9.333 13.333-.667 15.524 1.429.38 3.524 1.524 4.477 2.666 1.714 1.905 1.809 10.572 2.095 217.238l.285 215.238-2.38 2.19-2.286 2.191H74.927c-2.857 0-4.857-.666-6.19-2.095-2-1.905-2-3.333-2-216.952V46.922l2.38-2.476c2.382-2.38 3.144-2.476 13.905-2.476 15.239 0 15.429.19 16.286 13.524.572 8.762 1.048 10.666 3.905 16 4.095 7.333 5.524 8.666 12.476 11.619 5.048 2.095 7.048 2.286 24.19 2.38 12.858.096 19.143.477 20.096 1.334.762.667 3.143 4 5.238 7.429 7.714 12.666 10.952 16.19 20.19 21.81l8.762 5.428h43.048l7.238-4.476c9.047-5.429 15.428-12.19 21.714-22.762 2.667-4.572 5.333-8.286 5.905-8.381.667-.096 9.238-.19 19.143-.286 16.285-.095 18.571-.38 24.19-2.476 7.048-2.762 8.857-4.476 13.143-12.572l3.143-5.81V43.019c0-19.905-.19-22-2.095-26-2.762-5.81-9.238-12.572-14.286-14.953-4.19-2.095-5.524-2.095-99.714-2.095-79.143.095-95.905.286-98.572 1.429zm190.572 16.285c6.952 3.524 7.523 5.429 7.904 24.286.381 19.714-.19 21.524-7.238 24.952-4.285 2.096-5.714 2.19-24.857 2-16.762-.285-20.857 0-23.905 1.238-4.38 2-6.761 5.239-7.428 10.477-1.048 7.523-1.524 8.666-7.143 14.571-9.238 9.62-10.952 10.286-29.238 10.286-14 0-15.905-.19-19.619-2.19-9.429-5.048-17.333-15.715-17.333-23.43 0-2.095-.857-4.761-2.096-6.19-3.523-4.476-7.619-5.143-29.714-4.857l-20.19.286-4.572-2.572c-2.38-1.428-4.857-3.523-5.428-4.571-.572-1.048-1.048-8.952-1.048-17.905 0-19.524 1.048-23.333 7.429-26.19 3.904-1.81 8.476-1.905 92.571-1.905 82.286 0 88.762.095 91.905 1.714z"></path>
    <path d="M237.88 140.065c-3.715 1.429-8.572 13.714-10.667 27.429-.381 2.19-2 8.095-3.62 13.238-1.523 5.047-3.333 12.38-4 16.285-.57 4-2.38 10.953-4 15.62-1.618 4.57-3.428 11.904-4.094 16.095-.572 4.285-1.905 10.095-3.048 12.952-1.81 4.952-2.095 5.238-5.238 5.238-2.857 0-3.524-.476-5.048-3.619-.952-2-2.286-6.476-3.047-10-.762-3.428-2.667-9.238-4.381-12.762-1.715-3.524-3.048-7.238-3.048-8.19 0-2.857-2.571-10.572-4.857-14.857-1.143-2.096-2.572-6.19-3.143-8.953-2-9.81-7.905-16.571-13.143-15.238-2.762.667-9.238 9.143-12.095 15.62-1.048 2.475-3.048 6-4.381 7.809-1.333 1.81-2.952 4.666-3.619 6.476-1.429 4.095-8.19 13.333-10.667 14.762-1.143.571-7.047.952-13.333.952-13.524 0-15.714 1.048-15.714 6.953 0 2.666.666 4.571 2.38 6.476 2.667 2.857 2.191 2.762 21.905 2.857 11.429 0 11.905 0 16-2.857 2.762-2 5.334-5.143 7.62-9.524 2-3.62 4.38-7.81 5.333-9.238a152.768 152.768 0 0 0 3.238-5.143c1.81-2.857 4.952-3.238 6.286-.762.571.953 1.523 4.476 2.19 7.81.667 3.238 1.714 6.857 2.381 8 1.619 2.666 4 9.714 5.619 16.38.667 3.048 2.095 6.858 3.048 8.572 1.047 1.619 2.952 7.238 4.38 12.38 1.334 5.144 3.239 10.477 4.096 11.81.857 1.334 2.38 5.62 3.428 9.524 2.286 9.048 4.762 11.81 10.667 11.81 3.429 0 4.667-.476 5.81-2.286 2.285-3.429 7.238-19.81 8.476-27.619.571-3.905 2.476-11.238 4.095-16.286 1.714-5.143 3.524-12.38 4.095-16.095.572-3.714 2.381-10.857 4-15.81 1.62-5.047 3.62-13.428 4.381-18.857.857-5.428 1.81-10.476 2.095-11.428.953-2.381 4.19-2 5.524.667.667 1.238 2.19 3.428 3.429 4.857 1.238 1.524 3.238 6.476 4.476 11.047 1.143 4.572 3.048 9.905 4.19 11.81 1.143 1.905 2.858 6.19 3.905 9.524 1.048 3.428 3.048 7.142 4.476 8.571l2.572 2.381 26 .286 25.905.285 2.952-2.952c2.19-2.095 3.048-3.905 3.048-6.476 0-6.19-1.715-6.572-24-6.667-17.62 0-19.905-.19-22.762-1.905-3.62-2.19-7.62-9.238-9.429-16.666-.571-2.667-2.38-7.62-3.905-10.953-1.523-3.238-3.523-8.857-4.476-12.476-.857-3.524-2.476-8-3.619-9.81-1.048-1.809-2.762-6.475-3.81-10.285-3.523-12.571-9.047-18.857-14.857-16.762zM108.737 351.97c-1.334 1.333-2 3.333-2 6 0 2.666.666 4.666 2 6 1.904 2 3.333 2 106.952 2 103.714 0 105.048 0 107.048-2 2.761-2.857 2.666-9.238-.191-12-2.19-2-2.952-2-107.047-2-103.429 0-104.858 0-106.762 2zm4.666 68.952c-4.952.952-7.047 3.143-6.952 7.048.095 3.81 1.714 5.904 6 7.714 4.952 2 201.714 2 206.666-.095 6.096-2.572 7.81-10.096 2.858-13.334-2.572-1.714-8.858-1.81-103.715-1.904-55.619-.096-102.761.19-104.857.571z"></path>
  </symbol>
</svg>